<svg xmlns="http://www.w3.org/2000/svg" xmlns:xlink="http://www.w3.org/1999/xlink" width="2000" viewBox="0 0 1500 1499.999933" height="2000" preserveAspectRatio="xMidYMid meet"><defs><clipPath id="4ed3e7ebdd"><path d="M 75 0 L 1425 0 C 1466.421875 0 1500 33.578125 1500 75 L 1500 1425 C 1500 1466.421875 1466.421875 1500 1425 1500 L 75 1500 C 33.578125 1500 0 1466.421875 0 1425 L 0 75 C 0 33.578125 33.578125 0 75 0 Z M 75 0" clip-rule="nonzero"/></clipPath><clipPath id="3cbaf149ea"><path d="M 0 0 L 1500 0 L 1500 1500 L 0 1500 Z M 0 0" clip-rule="nonzero"/></clipPath><clipPath id="614b1f7632"><path d="M 75 0 L 1425 0 C 1466.421875 0 1500 33.578125 1500 75 L 1500 1425 C 1500 1466.421875 1466.421875 1500 1425 1500 L 75 1500 C 33.578125 1500 0 1466.421875 0 1425 L 0 75 C 0 33.578125 33.578125 0 75 0 Z M 75 0" clip-rule="nonzero"/></clipPath><clipPath id="56833e1de5"><rect x="0" width="1500" y="0" height="1500"/></clipPath><clipPath id="68c7a8bcec"><path d="M 150 129 L 1349.835938 129 L 1349.835938 1371 L 150 1371 Z M 150 129" clip-rule="nonzero"/></clipPath><mask id="5abd9fdbd7"><g><g transform="matrix(2.427246, 0, 0, 2.427246, 149.836559, 128.620865)"/></g></mask></defs><g clip-path="url(#4ed3e7ebdd)"><g transform="matrix(1, 0, 0, 1, 0, 0.000000000000112861)"><g clip-path="url(#56833e1de5)"><g clip-path="url(#3cbaf149ea)"><g clip-path="url(#614b1f7632)"><rect x="-330" width="2160" fill="#2d4330" height="2159.999904" y="-329.999985" fill-opacity="1"/></g></g></g></g></g><g clip-path="url(#68c7a8bcec)"><g mask="url(#5abd9fdbd7)"><g transform="matrix(2.427246, 0, 0, 2.427246, 149.836559, 128.620865)"/></g></g></svg>